<?xml version="1.0" encoding="utf-8"?>
<!-- Generator: Adobe Illustrator 26.0.1, SVG Export Plug-In . SVG Version: 6.00 Build 0)  -->
<svg version="1.1" id="Layer_1" xmlns="http://www.w3.org/2000/svg" xmlns:xlink="http://www.w3.org/1999/xlink" x="0px" y="0px"
	 viewBox="0 0 1350 500" style="enable-background:new 0 0 1350 500;" xml:space="preserve">
<style type="text/css">
	.st0{fill:#8B5CF6;}
</style>
<g>
	<path d="M452.59,367.49V90.98h99.06c78.78,0,136.5,51.09,136.5,138.45c0,87.36-58.11,138.06-136.89,138.06H452.59z M549.31,317.57
		c45.24,0,83.07-28.08,83.07-88.14c0-60.06-37.44-88.53-82.68-88.53h-43.29v176.67H549.31z"/>
	<path d="M848.05,227.09c-5.85-1.17-10.92-1.56-15.6-1.56c-26.52,0-49.53,12.87-49.53,54.21v87.75h-51.87V175.61h50.31v28.47
		c11.7-25.35,38.22-30.03,54.6-30.03c4.29,0,8.19,0.39,12.09,0.78V227.09z"/>
	<path d="M1069.57,271.55c0,58.89-43.29,101.79-100.62,101.79s-100.62-42.9-100.62-101.79c0-59.28,43.29-101.79,100.62-101.79
		S1069.57,212.27,1069.57,271.55z M1017.7,271.55c0-36.27-23.4-54.6-48.75-54.6s-48.75,18.33-48.75,54.6
		c0,35.88,23.4,54.6,48.75,54.6S1017.7,307.82,1017.7,271.55z"/>
	<path d="M1110.52,441.59V175.61h50.31v23.4c8.58-14.82,30.03-27.69,58.89-27.69c56.16,0,88.53,42.9,88.53,99.84
		c0,58.11-36.27,101.01-90.48,101.01c-26.52,0-46.02-10.53-55.38-23.4v92.82H1110.52z M1209.58,217.73
		c-26.52,0-47.97,19.89-47.97,53.82s21.45,54.21,47.97,54.21c26.52,0,47.58-19.89,47.58-54.21
		C1257.16,237.62,1236.1,217.73,1209.58,217.73z"/>
</g>
<g>
	<path class="st0" d="M180.51,235.93c-4.66,7.84-77.39,9.16-117.06-13.08c-39.68-22.24-20.4-90.22,19.84-108.07
		S185.17,228.1,180.51,235.93z"/>
	<path class="st0" d="M179.96,263.14c4.66,7.84-30.52,69.63-70.2,91.87c-39.68,22.24-90.69-27.96-86.5-70.72
		C27.45,241.54,175.29,255.3,179.96,263.14z"/>
	<path class="st0" d="M203.96,277.21c9.33,0,46.86,60.48,46.86,104.95c0,44.47-70.29,62.26-106.34,37.36
		C108.43,394.61,194.63,277.21,203.96,277.21z"/>
	<path class="st0" d="M228.51,264.07c4.66-7.84,77.39-9.16,117.06,13.08c39.68,22.24,20.4,90.22-19.84,108.07
		C285.48,403.07,223.84,271.91,228.51,264.07z"/>
	<path class="st0" d="M229.06,236.86c-4.66-7.84,30.52-69.63,70.2-91.87c39.68-22.24,90.69,27.96,86.5,70.72
		C381.56,258.46,233.72,244.7,229.06,236.86z"/>
	<path class="st0" d="M205.06,222.79c-9.33,0-46.86-60.48-46.86-104.95c0-44.47,70.29-62.26,106.34-37.36
		C300.58,105.39,214.38,222.79,205.06,222.79z"/>
</g>
</svg>
